
<svg xmlns="http://www.w3.org/2000/svg" version="1.1" xmlns:xlink="http://www.w3.org/1999/xlink" preserveAspectRatio="none" x="0px" y="0px" width="300px" height="220px" viewBox="0 0 300 220">
<defs>
<g id="Symbole_1444_0_Layer0_0_FILL">
<path fill="#CCCCCC" stroke="none" d="
M 245.4 31.95
Q 245.35 28.9 244.2 26.65 243 24.45 241 23.25 239.05 22 236.5 22 234.3 22.05 232.65 22.9 231 23.75 230.1 25.15
L 230.1 15.8 225.2 15.8 225.2 41.7 230.1 41.7 230.1 38.95
Q 231 40.25 232.65 41.1 234.25 41.95 236.5 42 239.05 42 241 40.75 243 39.5 244.2 37.25 245.35 35 245.4 31.95
M 239.65 35.05
Q 238.9 36.35 237.75 37.05 236.55 37.7 235.2 37.7 233.9 37.7 232.75 37.05 231.6 36.4 230.85 35.1 230.15 33.85 230.1 32 230.15 30.15 230.85 28.9 231.6 27.6 232.75 26.95 233.9 26.3 235.2 26.3 236.55 26.3 237.75 26.95 238.9 27.6 239.65 28.85 240.35 30.1 240.35 31.95 240.35 33.75 239.65 35.05
M 208.1 22
Q 205.6 22 203.6 23.25 201.6 24.45 200.45 26.65 199.3 28.9 199.25 31.95 199.3 35 200.45 37.25 201.6 39.5 203.6 40.75 205.6 42 208.1 42 210.4 41.95 212 41.05 213.65 40.15 214.5 38.85
L 214.5 41.7 219.45 41.7 219.45 22.3 214.5 22.3 214.5 25.05
Q 213.65 23.8 212.05 22.95 210.45 22.05 208.1 22
M 213.8 28.9
Q 214.5 30.15 214.5 32 214.5 33.85 213.8 35.1 213.05 36.4 211.9 37.05 210.75 37.7 209.35 37.7 208.05 37.7 206.9 37.05 205.7 36.35 205 35.05 204.3 33.75 204.25 31.95 204.3 30.1 205 28.85 205.7 27.6 206.9 26.95 208.05 26.3 209.35 26.3 210.75 26.3 211.9 26.95 213.05 27.6 213.8 28.9
M 194.65 15.8
L 189.75 15.8 189.75 41.7 194.65 41.7 194.65 15.8
M 181.85 36.2
Q 180.5 36.25 179.65 37.05 178.8 37.85 178.8 39.05 178.8 40.3 179.65 41.1 180.5 41.9 181.85 41.95 183.15 41.9 183.95 41.1 184.8 40.3 184.8 39.05 184.8 37.85 183.95 37.05 183.15 36.25 181.85 36.2
M 170.15 23.25
Q 167.9 22 165.05 22 162.25 22 160 23.25 157.75 24.45 156.45 26.7 155.1 28.95 155.1 32 155.1 35.05 156.4 37.3 157.7 39.55 159.9 40.8 162.1 42 164.9 42 167.8 42 170.05 40.8 172.3 39.55 173.65 37.3 175 35.05 175.05 32 175 28.95 173.7 26.7 172.4 24.45 170.15 23.25
M 169.25 35.2
Q 168.55 36.5 167.4 37.1 166.25 37.75 164.9 37.75 163.6 37.75 162.5 37.1 161.4 36.5 160.75 35.2 160.05 33.9 160.05 32 160.1 30.05 160.75 28.8 161.45 27.5 162.55 26.9 163.7 26.25 165 26.25 166.3 26.25 167.45 26.9 168.6 27.5 169.3 28.8 170 30.05 170 32 170 33.9 169.25 35.2
M 146.85 23
Q 145.05 22.05 142.7 22.05 140.55 22.05 138.8 23.05 137 24.05 136.05 25.75 135.05 23.95 133.25 23 131.5 22.05 129.2 22.05 127.4 22.05 125.9 22.75 124.45 23.45 123.5 24.65
L 123.5 22.3 118.6 22.3 118.6 41.7 123.5 41.7 123.5 31
Q 123.55 28.7 124.7 27.5 125.85 26.3 127.9 26.3 129.85 26.3 131 27.5 132.15 28.7 132.2 31
L 132.2 41.7 137.1 41.7 137.1 31
Q 137.1 28.7 138.3 27.5 139.45 26.3 141.45 26.3 143.4 26.3 144.55 27.5 145.7 28.7 145.75 31
L 145.75 41.7 150.65 41.7 150.65 30.3
Q 150.6 27.65 149.6 25.8 148.6 23.95 146.85 23
M 109.15 23
Q 107.35 22.05 105 22.05 102.85 22.05 101.1 23.05 99.3 24.05 98.35 25.75 97.35 23.95 95.55 23 93.8 22.05 91.5 22.05 89.7 22.05 88.2 22.75 86.75 23.45 85.8 24.65
L 85.8 22.3 80.9 22.3 80.9 41.7 85.8 41.7 85.8 31
Q 85.85 28.7 87 27.5 88.15 26.3 90.2 26.3 92.15 26.3 93.3 27.5 94.45 28.7 94.5 31
L 94.5 41.7 99.4 41.7 99.4 31
Q 99.4 28.7 100.6 27.5 101.75 26.3 103.75 26.3 105.7 26.3 106.85 27.5 108 28.7 108.05 31
L 108.05 41.7 112.95 41.7 112.95 30.3
Q 112.9 27.65 111.9 25.8 110.9 23.95 109.15 23
M 67.85 17.25
L 62.15 17.25 53.35 41.7 58.5 41.7 60.1 37.05 69.85 37.05 71.45 41.7 76.65 41.7 67.85 17.25
M 68.5 33.1
L 61.45 33.1 65 22.9 68.5 33.1 Z"/>
</g>

<g id="ICON_AMMO_0_Layer1_0_FILL">
<path fill="#6888FF" fill-opacity="0.7490196078431373" stroke="none" d="
M -1.75 -36.65
Q -3.75 -38.6 -6.55 -38.6 -9.35 -38.6 -11.35 -36.65 -13.4 -34.65 -13.4 -31.75 -13.4 -28.95 -11.35 -26.95 -9.35 -24.95 -6.55 -24.95 -3.75 -24.95 -1.75 -26.95 0.25 -28.95 0.25 -31.75 0.25 -34.65 -1.75 -36.65
M 16.95 19.95
L 16.95 -11.15
Q 7.4294921875 -2.5734375 -0.4 -11.5 -8.75 -19.9 -17.05 -11.2
L -17.05 19.95 16.95 19.95
M 11.9 -19.3
Q 11.9 -20.85 10.8 -21.95 9.7 -23.05 8.15 -23.05 6.6 -23.05 5.5 -21.95 4.4 -20.85 4.4 -19.3 4.4 -17.75 5.5 -16.65 6.6 -15.55 8.15 -15.55 9.7 -15.55 10.8 -16.65 11.9 -17.75 11.9 -19.3 Z"/>
</g>

<path id="ICON_AMMO_0_Layer3_0_1_STROKES" stroke="#6888FF" stroke-width="5" stroke-linejoin="round" stroke-linecap="square" fill="none" d="
M -72.75 33.925
Q -80 18.4919921875 -80 0.05 -80 -33.1 -56.6 -56.55 -54.827734375 -58.322265625 -53 -59.95 -51.2900390625 -61.48359375 -49.525 -62.9 -28.3005859375 -80 0 -80 18.4951171875 -80 33.95 -72.725
M 72.725 -33.9
Q 80 -18.4345703125 80 0.05 80 33.2 56.6 56.6 33.2 80 0 80 -18.4375 80 -33.875 72.75"/>

<path id="ICON_AMMO_0_Layer2_0_1_STROKES" stroke="#6888FF" stroke-width="10" stroke-linejoin="round" stroke-linecap="square" fill="none" d="
M -3.2 -55
L 3.2 -55
Q 15.1 -55 23.55 -44.45 32 -33.9 32 -19
L 32 35 -32 35 -32 -19
Q -32 -33.9 -23.55 -44.45 -15.1 -55 -3.2 -55 Z"/>

<path id="ICON_AMMO_0_Layer0_0_1_STROKES" stroke="#6888FF" stroke-width="10" stroke-linejoin="round" stroke-linecap="round" fill="none" d="
M -31.97413330078125 51.2
L 32.02444763183594 51.2"/>
</defs>

<g transform="matrix( 1, 0, 0, 1, 0,164.1) ">
<g transform="matrix( 1, 0, 0, 1, 0,0) ">
<use xlink:href="#Symbole_1444_0_Layer0_0_FILL"/>
</g>
</g>

<g transform="matrix( 1, 0, 0, 1, 150,90) ">
<g transform="matrix( 1, 0, 0, 1, 0,0) ">
<use xlink:href="#ICON_AMMO_0_Layer3_0_1_STROKES"/>
</g>

<g transform="matrix( 1, 0, 0, 1, 0,0) ">
<use xlink:href="#ICON_AMMO_0_Layer2_0_1_STROKES"/>
</g>

<g transform="matrix( 1, 0, 0, 1, 0,0) ">
<use xlink:href="#ICON_AMMO_0_Layer1_0_FILL"/>
</g>

<g transform="matrix( 0.76507568359375, 0, 0, 1, -0.3,-2.25) ">
<use xlink:href="#ICON_AMMO_0_Layer0_0_1_STROKES" transform="matrix( 1.3070526123046875, 0, 0, 1, 0.35,2.25) "/>
</g>
</g>
</svg>
