<?xml version="1.0" encoding="utf-8"?>
<!-- Generator: Adobe Illustrator 17.0.0, SVG Export Plug-In . SVG Version: 6.00 Build 0)  -->
<!DOCTYPE svg PUBLIC "-//W3C//DTD SVG 1.1//EN" "http://www.w3.org/Graphics/SVG/1.1/DTD/svg11.dtd">
<svg version="1.1" xmlns="http://www.w3.org/2000/svg" xmlns:xlink="http://www.w3.org/1999/xlink" x="0px" y="0px" width="800px"
	 height="400px" viewBox="0 0 800 400" enable-background="new 0 0 800 400" xml:space="preserve">
<g id="Calque_1">
	<g id="text">
		<path fill="#FFFFFF" d="M488.335,248.194c-0.423-8.991-7.463-16.334-16.477-16.334s-16.759,7.146-16.772,19.394
			c-0.016,15.179,7.758,20.289,16.772,20.289c5.851,0.255,8.904-0.845,12.962-2.252c1.44-0.524,2.185-2.12,1.66-3.561
			c-0.524-1.44-2.12-2.185-3.561-1.66c-2.875,0.919-9.239,3.235-15.181,0.855c-4.974-1.992-5.347-6.962-5.72-11.932
			c7.909,0,15.819,0,23.728,0C487.264,252.988,488.54,252.553,488.335,248.194z M461.997,248.194c0-5.442,3.564-11.104,9.862-11.104
			s9.862,5.663,9.862,11.104C475.146,248.194,468.571,248.194,461.997,248.194z"/>
		<path fill="#FFFFFF" d="M529.138,248.194c-0.423-8.991-7.464-16.334-16.477-16.334s-16.759,7.146-16.772,19.394
			c-0.016,15.179,7.758,20.289,16.772,20.289c5.851,0.255,8.904-0.845,12.962-2.252c1.44-0.524,2.184-2.12,1.66-3.561
			c-0.524-1.44-2.12-2.185-3.561-1.66c-2.875,0.919-9.239,3.235-15.181,0.855c-4.974-1.992-5.347-6.962-5.72-11.932
			c7.909,0,15.819,0,23.728,0C528.067,252.988,529.343,252.553,529.138,248.194z M502.799,248.194
			c0-5.442,3.564-11.104,9.862-11.104c6.298,0,9.862,5.663,9.862,11.104C515.948,248.194,509.374,248.194,502.799,248.194z"/>
		<circle fill="#FFFFFF" cx="543.391" cy="266.488" r="5"/>
		<path fill="#FFFFFF" d="M567.259,271.296c0-16.352,0-32.705,0-36.069c0-1.839-1.494-3.334-3.334-3.334
			c-1.839,0-3.334,1.494-3.334,3.334c0,3.364,0,19.696,0,36.028c-0.073,2.79-0.145,5.579-1.333,7.101
			c-1.187,1.519-2.049,1.456-4.185,1.303c-1.44-0.524-3.036,0.22-3.561,1.66c-0.524,1.44,0.22,3.036,1.66,3.561
			c4.027,0.571,7.627,0.917,10.753-2.059C566.943,279.948,567.101,275.622,567.259,271.296z"/>
		<circle fill="#FFFFFF" cx="563.926" cy="221.615" r="3.889"/>
		<path fill="#FFFFFF" d="M588.276,271.538c6.659,0.032,13.591-3.097,13.835-11.401s-7.818-10.096-12.477-11.987
			c-4.659-1.89-6.595-4.219-5.615-7.353s3.279-3.249,5.108-3.288c4.87-0.103,6.165,0.898,7.565,1.457
			c1.44,0.524,3.036-0.22,3.561-1.66s-0.22-3.036-1.66-3.561c-1.458-0.672-2.742-1.562-7.676-1.796
			c-2.774-0.15-11.251,0.492-12.982,7.799c-1.731,7.308,2.104,10.89,8.644,13.541c3.736,1.515,9.087,2.755,9.05,7.154
			c-0.032,3.807-2.507,5.303-6.354,5.517c-5.101,0.283-7.258-1.128-9.009-1.971c-1.44-0.524-3.036,0.22-3.56,1.66
			s0.22,3.036,1.66,3.561C579.722,269.959,582.533,271.51,588.276,271.538z"/>
		<path fill="#FFFFFF" d="M445.622,238.563c1.728,0.629,3.643-0.264,4.273-1.992c0.629-1.729-0.264-3.643-1.992-4.273
			c-2.218-0.588-4.505-0.636-6.5,0.307c-2.608,1.233-4.191,3.323-5.774,5.414c0-1.073,0-2.147,0-2.782
			c0-1.839-1.494-3.334-3.334-3.334c-1.839,0-3.334,1.494-3.334,3.334c0,0.635,0.003,29.754,0.003,32.948
			c0,1.839,1.494,3.334,3.334,3.334c1.839,0,3.334-1.494,3.334-3.334c0-3.194-0.001-12.676-0.003-22.159
			c1.399-2.139,2.798-4.278,4.283-5.781C441.454,238.684,443.455,237.961,445.622,238.563z"/>
		<path fill="#FFFFFF" d="M417.072,247.758c-0.34-6.23-0.68-12.46-7.783-15.056c-7.707-2.817-12.185,1.144-16.663,5.106
			c0.001-8.963,0.003-17.926,0.003-21.148c0-1.839-1.494-3.334-3.334-3.334c-1.839,0-3.334,1.494-3.334,3.334
			c0,3.223,0,48.407,0,51.525c0,1.839,1.494,3.334,3.334,3.334c1.839,0,3.334-1.494,3.334-3.334
			c-0.001-7.891-0.002-15.783-0.003-23.674c3.822-4.205,7.643-8.41,12.704-6.539c4.651,1.719,4.863,6.168,5.075,10.617
			c-0.001,6.532-0.002,13.064-0.003,19.596c0,1.839,1.494,3.334,3.333,3.334c1.839,0,3.334-1.494,3.334-3.334
			C417.07,261.376,417.071,254.567,417.072,247.758z"/>
		<path fill="#FFFFFF" d="M375.709,270.697c1.44-0.524,2.184-2.12,1.66-3.561c-0.524-1.44-2.12-2.185-3.561-1.66
			c-3.062,0.689-3.425,0.925-5.28-0.777c-1.432-1.313-1.568-3.869-1.704-6.425c0-6.925,0-13.851,0-20.776c2.974,0,5.947,0,8.921,0
			c1.533,0,2.778-1.245,2.778-2.778s-1.245-2.778-2.778-2.778c-2.974,0-5.947,0-8.921,0c0.001-2.764,0.003-5.529,0.003-7.383
			c0-1.839-1.494-3.334-3.334-3.334c-1.839,0-3.334,1.494-3.334,3.334c0,1.854-0.001,4.619-0.003,7.383c-1.559,0-3.117,0-4.676,0
			c-1.533,0-2.778,1.245-2.778,2.778s1.245,2.778,2.778,2.778c1.559,0,3.117,0,4.676,0c0,7.237,0,14.473,0,21.71
			c0.248,3.958,0.495,7.916,3.494,10.184C366.578,271.605,370.805,272.114,375.709,270.697z"/>
	</g>
</g>
<g id="Calque_6">
	<path opacity="0.3" fill="#FFFFFF" d="M367.033,156.553c-5.977,2.95-8.5,4.535-13.894,7.363c-15.677,8.22-30.331,18-44.378,28.774
		c-16.658,12.777-32.016,26.964-46.426,42.166c-13.706,14.458-27.358,30.822-38.933,47.064c-3.552,4.984-6.416,8.756-10.328,13.466
		c-1.721,2.072-4.283,1.334-5.239-1.101c-6.962-17.745-14.396-34.326-20.708-52.301c-9.369-26.682-16.58-54.013-21.913-81.803
		c-3.443-17.943-6.645-35.932-9.943-53.903c-0.568-3.092-1.078-5.194-1.616-8.292c-0.601-3.462,0.936-5.577,4.565-5.515
		c4.807,0.083,8.633,0.374,13.403,0.961c13.505,1.662,27.043,3.176,40.464,5.377c23.24,3.811,46.124,9.328,68.382,17.028
		c15.391,5.324,30.602,11.245,45.614,17.565c12.451,5.242,22.498,10.447,34.709,16.255c1.645,0.782,3.407,1.516,4.738,2.697
		C366.593,153.3,367.033,154.938,367.033,156.553z M213.046,128.527c-6.667-1.454-13.352-2.901-20.031-4.376
		c-1.687-0.373-3.394-1.074-4.688,0.734c2.003,4.604,3.998,9.188,5.942,13.658c6.585-1.733,12.942-3.407,19.329-5.088
		C213.431,131.965,213.267,130.501,213.046,128.527z M243.332,136.773c2.289,5.078,4.331,9.401,6.192,13.8
		c1.459,3.449,3.035,4.399,6.597,3.538c2.407-0.582,4.786-1.384,7.227-1.696c2.241-0.287,3.412-0.794,2.497-3.349
		c-0.436-1.219-0.333-2.621-0.631-3.904c-0.125-0.539-0.56-1.271-1.02-1.428C257.49,141.443,250.758,139.234,243.332,136.773z
		 M241.35,226.954c4.104-1.712,8.072-3.313,11.977-5.055c0.603-0.269,1.262-1.16,1.311-1.807c0.346-4.546,0.538-9.104,0.77-13.491
		c-1.892-1.016-3.044-1.016-4.238,0.686c-3.047,4.341-6.178,8.645-9.58,12.708C239.669,222.288,240.06,224.272,241.35,226.954z
		 M295.875,158.5c0,2.269-0.141,5.267-0.141,7.244c2.914,0.827,6.38,1.786,9.16,2.806c2.036,0.747,3.544,0.652,5.045-1.034
		c0.976-1.097,2.276-1.914,3.464-2.812c3.259-2.463,2.948-3.33,1.534-7.517C308.658,157.798,302.241,157.882,295.875,158.5z
		 M209.746,280.56c0.238,0.007,0.477,0.014,0.715,0.021c1.577-4.591,3.203-9.167,4.662-13.796c0.163-0.518-0.46-1.542-1.003-1.976
		c-1.679-1.34-3.507-2.492-5.257-3.744c-2.791-1.998-5.566-4.019-8.348-6.03c-0.196,0.12-0.392,0.239-0.588,0.359
		C203.199,263.783,206.473,272.171,209.746,280.56z M289.705,183.567c0-4.077,0.053-7.888-0.049-11.695
		c-0.019-0.694-0.496-1.665-1.063-2.004c-2.435-1.458-4.193-1.148-6.295,0.96c-1.284,1.287-2.499,2.646-3.688,4.022
		c-0.342,0.396-0.76,1.024-0.671,1.446c0.655,3.115,1.429,6.205,2.185,9.383C283.463,184.943,286.503,184.272,289.705,183.567z
		 M208.125,180.5c1.454,1.988,3.154,4.923,4.5,7.313c1.652,3.712,4.853,5.027,8.614,5.439c2.213,0.243,3.39-0.556,2.945-2.716
		c-0.914-4.431-2.004-9.826-3.046-14.342C217.014,177.644,212.553,178.943,208.125,180.5z M268.922,168.014
		c-4.088,3.305-8.815,6.766-12.797,9.986c0.923,3.081,2.084,6.42,3.063,9.688c0.697-0.755,1.628-1.862,2.086-2.41
		c2.128-2.543,4.162-5.168,6.379-7.63C270.872,174.075,271.119,172.862,268.922,168.014z M217.059,155.239
		c-0.524,0.248-1.023,0.373-1.378,0.669c-3.3,2.751-6.43,5.732-9.906,8.234c-2.445,1.76-2.35,3.359-0.763,5.502
		c4.006-1.43,8.009-2.934,12.07-4.264c1.275-0.418,1.727-0.731,1.351-2.217C217.791,160.63,217.517,158.003,217.059,155.239z
		 M177.548,106.434c1.653,2.579,3.104,4.569,4.256,6.719c1.053,1.964,2.123,2.822,4.571,2.142c4.153-1.154,8.774-1.063,11.863-5.457
		C191.381,108.71,184.74,107.618,177.548,106.434z M270.138,130.951c0.357,2.857,0.698,5.728,1.094,8.592
		c0.05,0.36,0.313,0.878,0.605,0.989c3.882,1.475,7.786,2.89,11.685,4.321c0.151-0.178,0.301-0.357,0.452-0.535
		c-2.19-3.445-4.655-6.751-6.489-10.377C275.783,130.578,273.428,130.01,270.138,130.951z M249.515,122.579
		c-0.062-0.276-0.123-0.553-0.185-0.829c-5.492-1.465-10.984-2.93-16.475-4.394c-0.122,0.206-0.245,0.412-0.367,0.618
		c1.685,2.683,3.386,5.356,5.051,8.05c1.454,2.353,3.307,2.995,5.58,1.499C245.364,126.045,247.392,124.24,249.515,122.579z
		 M274.995,193.275c-4.565,1.234-8.994,2.43-13.362,3.61c-0.202,3.92-0.204,3.926,3.303,4.617c1.945,0.383,3.893,0.761,5.847,1.093
		c0.466,0.079,1.025,0.103,1.439-0.08c2.6-1.146,4.232-4.736,3.436-7.467C275.499,194.503,275.261,193.98,274.995,193.275z
		 M236.652,195.772c0.144,0.287,0.287,0.573,0.431,0.86c5.133-1.397,10.271-2.774,15.385-4.238c0.347-0.099,0.789-0.921,0.705-1.3
		c-0.597-2.675-1.321-5.321-2.121-8.429C245.991,187.272,241.322,191.522,236.652,195.772z M207.235,226.103
		c-1.889,0.984-2.075,2.173-1.214,3.9c1.211,2.426,2.127,4.999,3.273,7.46c0.275,0.59,0.899,1.309,1.469,1.42
		c2.388,0.463,4.816,0.717,7.297,1.058c0.356-2.833-0.177-4.866-2.234-6.509C212.92,231.109,210.156,228.61,207.235,226.103z
		 M201.594,159.754c3.548-2.918,6.818-5.608,10.491-8.628c-5.008-1.286-9.614-2.469-14.619-3.755
		C198.907,151.696,200.152,155.43,201.594,159.754z M228.128,206.712c-4.501,0.687-4.46,0.7-3.146,4.747
		c0.991,3.052,1.817,6.158,2.686,9.249c0.554,1.97,1.053,3.956,1.576,5.934c1.464-1.554,3.22-3.336,2.951-4.726
		C231.198,216.77,229.534,211.752,228.128,206.712z M226.376,147.503c5.3,1.306,10.007,2.466,15.161,3.736
		c-1.814-4.025-3.42-7.587-5.128-11.378C233.009,142.451,229.887,144.828,226.376,147.503z M199.558,197.57
		c-0.149,0.05-0.298,0.099-0.448,0.149c0,3.826-0.035,7.654,0.033,11.479c0.012,0.671,0.289,1.479,0.725,1.977
		c1.86,2.127,3.826,4.161,5.775,6.253c1.349-1.203,2.646-1.752,1.676-3.672C204.621,208.417,202.131,202.973,199.558,197.57z
		 M333.688,156.375c-0.383,2.912-0.737,7.548-1.172,10.851c5.401-3.024,10.48-5.868,15.559-8.712
		c-0.043-0.183-0.281-1.268-0.324-1.451C343.078,157.063,338.553,156.375,333.688,156.375z M234.708,204.708
		c0.957,3.501,1.899,6.946,2.963,10.836c2.786-3.795,5.279-7.191,7.997-10.893C241.803,203.872,238.443,202.549,234.708,204.708z
		 M189.707,224.086c0.261-0.009,0.523-0.019,0.784-0.028c0.66-3.711,1.334-7.421,1.959-11.138c0.055-0.33-0.101-0.811-0.334-1.057
		c-2.311-2.451-4.659-4.868-6.997-7.294c-0.239,0.146-0.478,0.291-0.716,0.437C186.17,211.366,187.938,217.726,189.707,224.086z
		 M218.423,115.918c0.4,2.433,0.75,4.796,1.203,7.139c0.11,0.57,0.457,1.426,0.876,1.552c2.805,0.847,5.66,1.531,8.498,2.269
		c-1.548-3.348-3.602-6.125-5.284-9.111C222.405,115.437,220.937,114.49,218.423,115.918z M299.659,138.892
		c-5.113-1.926-9.616-3.621-14.618-5.505c2.416,3.956,4.519,7.4,6.692,10.957C294.339,142.551,296.755,140.89,299.659,138.892z
		 M211.213,255.488c0.171-0.19,0.342-0.38,0.513-0.57c-1.353-2.826-2.665-5.673-4.093-8.46c-0.281-0.549-0.958-1.14-1.54-1.249
		c-3.037-0.573-6.103-0.997-9.159-1.472c-0.068,0.141-0.136,0.282-0.204,0.423C201.558,247.935,206.386,251.711,211.213,255.488z
		 M227.5,174.375c0.68,3.028,1.489,6.538,2.11,9.305c3.261-3.944,7.387-9.007,10.89-13.243
		C236.286,171.662,231.361,173.253,227.5,174.375z M223.998,154.55c0.511,3.004,0.934,5.493,1.382,8.128
		c3.94-1.218,7.777-2.404,12.179-3.765C232.771,157.373,228.614,156.035,223.998,154.55z M196.865,118.584
		c-0.007,0.208-0.015,0.417-0.022,0.625c5.048,1.139,10.095,2.277,15.556,3.509c-0.462-2.247-0.864-4.2-1.304-6.342
		C206.13,117.147,201.498,117.866,196.865,118.584z M264.242,137.818c-0.423-2.42-0.783-4.472-1.139-6.51
		c-4.369,0.506-8.478,0.982-12.587,1.458c0.003,0.124,0.006,0.248,0.009,0.372C254.966,134.653,259.407,136.168,264.242,137.818z
		 M247.545,172.772c-4.133,4.943-8.106,9.696-12.08,14.449c0.177,0.179,0.354,0.357,0.532,0.536
		c0.263-0.121,0.573-0.188,0.781-0.372c3.235-2.851,6.348-5.857,9.723-8.529C248.562,177.224,249.403,175.656,247.545,172.772z
		 M238.93,242.249c-0.679-2.173-1.182-4.04-1.886-5.829c-0.146-0.371-1.13-0.745-1.566-0.607c-1.395,0.442-2.873,0.919-3.998,1.795
		c-0.619,0.482-0.744,1.783-0.792,2.731c-0.022,0.429,0.64,1.23,1.068,1.287C234.012,241.925,236.293,242.041,238.93,242.249z
		 M299.563,146.769c4.448-0.235,8.896-0.47,13.437-0.709c-0.355-3.265-3.414-3.247-5.372-3.737
		C304.026,141.422,302.264,145.14,299.563,146.769z M316.842,177.902c-6.845-3.236-9.696-2.563-13.663,2.879
		C307.668,179.835,311.915,178.94,316.842,177.902z M191.224,177.513c-4.433,1.998-2.141,4.547-1.778,6.831
		c0.295,1.859,1.501,2.291,3.584,2.263C192.416,183.517,191.844,180.634,191.224,177.513z M222.403,142.94
		c2.949-2.255,5.604-4.286,8.259-6.317c-2.43,0.039-4.574,0.797-6.751,0.912c-2.422,0.128-2.431,1.452-2.182,3.14
		C221.824,141.318,222.097,141.934,222.403,142.94z M205.764,142.053c0.022,0.174,0.044,0.348,0.066,0.522
		c3.063,0.709,6.127,1.417,9.492,2.196c-0.28-1.854-0.511-3.382-0.759-5.023C211.576,140.53,208.67,141.291,205.764,142.053z
		 M306.37,133.278c-3.895-1.187-7.556-3.581-12.594-2.403c3.052,1.276,5.575,2.224,7.999,3.38
		C303.596,135.125,305.169,135.523,306.37,133.278z M180.658,191.381c2.556,2.817,4.846,5.341,7.567,8.34
		C187.361,193.07,185.699,191.231,180.658,191.381z M266.634,188.391c0.093,0.143,0.186,0.287,0.28,0.43
		c2.236-0.558,4.471-1.116,6.71-1.675c-0.458-1.799-0.853-3.353-1.369-5.384C270.162,184.231,268.398,186.311,266.634,188.391z
		 M295.203,193.147c3.097-2.394,5.771-4.461,8.445-6.528C294.249,188.355,296.18,187.176,295.203,193.147z M302.676,173.608
		c-2.263-0.592-4.026-1.054-5.757-1.507c0,2.467,0,4.426,0,6.602C298.87,176.976,300.567,175.474,302.676,173.608z M213.107,246.148
		c1.47,2.911,2.739,5.423,4.008,7.935c0.169-0.046,0.338-0.092,0.506-0.138c0.184-2.372,0.367-4.744,0.55-7.1
		C216.41,246.603,214.956,246.403,213.107,246.148z M261.625,213.359c0.191,0.103,0.381,0.206,0.572,0.31
		c1.517-1.746,3.035-3.492,4.887-5.624c-1.94-0.22-3.359-0.381-4.944-0.561C261.952,209.632,261.788,211.496,261.625,213.359z
		 M197.441,236.774c2.234,0.375,4.11,0.691,6.372,1.071c-0.932-2.079-1.642-3.662-2.447-5.459
		C200,233.914,198.878,235.168,197.441,236.774z M337.547,145.951c-3.315-1.424-6.184-2.656-9.337-4.01
		C329.912,146.136,332.062,147.069,337.547,145.951z M326.486,161.97c-0.253-0.122-0.506-0.245-0.759-0.367
		c-0.751,0.977-2.101,1.94-2.123,2.934c-0.041,1.792,0.713,3.603,1.134,5.405c0.146-0.007,0.292-0.014,0.438-0.022
		C325.613,167.271,326.049,164.62,326.486,161.97z M284.413,201.692c3.002-1.352,2.823-3.996,3.614-6.672
		C283.904,197.672,283.531,198.392,284.413,201.692z M260.615,167.147c-0.067-0.212-0.235-1.31-0.302-1.522
		c-1.893,0.422-4.757,1.091-6.875,1.563c0.171,0.741,0.78,3.047,1.188,4.813C256.608,170.42,258.961,168.464,260.615,167.147z
		 M279.277,149.279c-2.543-1.004-4.49-1.772-6.514-2.571C272.494,150.726,272.494,150.726,279.277,149.279z M178.127,179.923
		c3.656-2.255,3.798-3.137,1.285-7.051C178.973,175.281,178.587,177.396,178.127,179.923z M268.463,214.641
		c0.244,0.273,0.488,0.547,0.732,0.82c2.117-1.887,4.234-3.775,6.351-5.662c-0.211-0.244-0.422-0.488-0.633-0.732
		C271.843,209.826,270.74,212.935,268.463,214.641z M184.513,159.589c-1.104-3.073-1.986-5.531-3.025-8.423
		C180.61,154.77,181.544,157.208,184.513,159.589z M318.758,172.535c-0.45-1.745-0.77-2.988-1.141-4.429
		c-1.332,1.109-2.332,1.942-3.619,3.014C315.608,171.6,316.917,171.988,318.758,172.535z M255.316,117.749
		c0.082-0.345,0.164-0.69,0.246-1.035c-3.67-0.914-7.339-1.828-11.009-2.743c-0.058,0.24-0.116,0.48-0.174,0.72
		C248.025,115.711,251.671,116.73,255.316,117.749z M230.102,252.768c0.17,0.061,0.341,0.122,0.511,0.183
		c0.962-1.417,1.924-2.835,3.124-4.604c-1.373,0-2.219,0-3.168,0C230.408,249.865,230.255,251.317,230.102,252.768z"/>
</g>
<g id="Calque_2">
	<path fill="#FFFFFF" d="M370.333,156.853c-6.187,3.061-12.244,5.907-17.845,8.865c-15.432,8.148-29.577,17.65-43.426,28.273
		c-16.591,12.725-31.649,26.598-46.013,41.731c-13.774,14.511-26.607,30.039-38.237,46.345c-3.506,4.916-7.233,9.49-11.117,14.233
		c-2.205,2.693-5.343,2.236-7.201-1.627c-7.734-17.178-14.555-34.714-20.561-52.564c-9.311-27.676-16.933-55.81-22.42-84.497
		c-3.277-17.133-6.307-34.312-9.437-51.473c-0.579-3.174-1.098-6.36-1.666-9.536c-0.542-3.033,1.119-5.386,4.3-5.323
		c4.973,0.098,9.967,0.367,14.902,0.972c13.423,1.646,26.874,3.175,40.216,5.355c23.243,3.8,46.125,9.324,68.385,17.014
		c15.393,5.318,30.598,11.253,45.616,17.559c12.226,5.134,24.056,11.214,36.044,16.912c1.87,0.889,3.828,1.754,5.403,3.047
		C368.875,153.125,369.338,155.174,370.333,156.853z M240.847,157.549c0.063-0.219,0.126-0.438,0.189-0.657
		c-14.766-4.271-29.533-8.542-44.822-12.964c2.976,9.074,5.67,17.291,8.312,25.346C216.862,165.292,228.854,161.421,240.847,157.549
		z M234.655,132.27c-11.938,2.908-23.632,5.756-35.711,8.698c15.3,4.438,30.044,8.714,45.329,13.148
		C241.004,146.69,237.901,139.641,234.655,132.27z M244.266,171.082c-0.162-0.327-0.323-0.653-0.485-0.98
		c-11.668,3.62-23.336,7.24-35.07,10.881c4.295,7.061,8.308,13.659,12.374,20.342C228.457,191.019,234.799,179.867,244.266,171.082z
		 M283.732,148.2c0.041-0.168,0.081-0.337,0.122-0.505c-13.997-4.881-27.995-9.763-42.473-14.811
		c3.558,7.861,6.781,14.981,9.897,21.864C262.179,152.549,272.956,150.375,283.732,148.2z M248.759,171.587
		c-9.719,9.212-16.404,20.154-23.946,30.935c9.931-2.764,19.362-5.41,28.808-7.999c1.564-0.429,1.624-1.317,1.233-2.609
		C252.852,185.297,250.88,178.671,248.759,171.587z M286.73,160.851c-10.748,2.176-21.478,4.348-32.781,6.636
		c2.138,7.856,4.164,15.3,6.116,22.474C268.917,180.298,277.742,170.664,286.73,160.851z M194.051,138.17
		c11.644-2.836,23.152-5.639,34.66-8.442c0.041-0.14,0.082-0.28,0.122-0.42c-14.198-3.253-28.396-6.506-43.183-9.894
		C188.687,126.195,191.372,132.189,194.051,138.17z M252.501,199.875c-0.063-0.237-0.126-0.474-0.189-0.711
		c-9.592,2.783-19.184,5.567-28.44,8.252c2.091,7.941,4.099,15.569,6.076,23.078C237.343,220.453,244.922,210.164,252.501,199.875z
		 M206.438,287.12c3.785-6.409,6.129-12.639,8.145-19.039c0.661-2.099,0.089-3.092-1.59-4.235
		c-4.034-2.745-7.962-5.652-11.862-8.587c-3.343-2.516-6.588-5.163-9.876-7.752c-0.223,0.123-0.446,0.247-0.669,0.37
		C195.806,260.801,201.027,273.725,206.438,287.12z M263.36,191.131c0.907,0.306,1.078,0.43,1.212,0.399
		c8.604-2.006,17.21-4.008,25.797-6.085c0.464-0.112,1.114-0.875,1.102-1.32c-0.184-6.985-0.462-13.968-0.719-20.952
		c-0.342-0.13-0.683-0.26-1.025-0.39C281.013,172.151,272.299,181.52,263.36,191.131z M325.243,157.851
		c-0.018-0.192-0.036-0.384-0.054-0.576c-9.688,0.761-19.377,1.522-28.766,2.26c0,7.778,0,15.016,0,22.371
		C306.238,173.713,315.741,165.782,325.243,157.851z M213.528,259.62c-6.198-13.972-12.062-27.191-17.705-39.911
		c-1.852,6.562-3.847,13.528-5.731,20.524c-0.126,0.469,0.452,1.318,0.928,1.727c3.271,2.811,6.534,5.639,9.932,8.292
		C204.903,253.338,208.988,256.252,213.528,259.62z M244.492,130.892c14.294,5.026,27.855,9.794,41.417,14.563
		c0.161-0.142,0.322-0.284,0.483-0.426c-3.472-5.556-6.916-11.129-10.467-16.633c-0.275-0.426-1.308-0.551-1.969-0.511
		c-5.463,0.335-10.933,0.629-16.379,1.166C253.403,129.462,249.262,130.208,244.492,130.892z M256.516,200.843
		c-0.221-0.088-0.443-0.176-0.664-0.264c-7.662,10.331-15.324,20.662-22.986,30.993c0.207,0.219,0.413,0.437,0.62,0.656
		c7.266-2.901,14.541-5.781,21.782-8.744c0.541-0.221,1.189-1.034,1.195-1.578C256.543,214.885,256.516,207.864,256.516,200.843z
		 M261.388,196.622c0,7.388,0,14.541,0,21.64c8.738-9.293,17.583-18.7,26.921-28.63C278.96,192.059,270.276,194.314,261.388,196.622
		z M186.037,234.611c0.437,0.02,0.874,0.04,1.311,0.061c1.585-6.971,3.226-13.931,4.683-20.929c0.183-0.879-0.336-2.213-0.987-2.908
		c-4.829-5.151-9.773-10.194-14.685-15.266c-0.509-0.525-1.051-1.017-1.577-1.525c-0.206,0.135-0.412,0.27-0.617,0.406
		C178.121,207.836,182.079,221.224,186.037,234.611z M189.431,117.39c14.493,3.356,28.255,6.542,42.532,9.848
		c-2.936-4.561-5.708-8.738-8.333-13.004c-1.115-1.812-2.587-1.963-4.428-1.684c-6.625,1.003-13.266,1.897-19.886,2.928
		C196.2,115.963,193.119,116.669,189.431,117.39z M321.278,146.035c0.071-0.404,0.142-0.807,0.213-1.211
		c-12.871-5.256-25.743-10.512-38.614-15.767c3.113,6.17,6.395,11.775,9.802,17.302c0.305,0.494,1.435,0.718,2.159,0.676
		c4.633-0.272,9.254-0.775,13.889-0.964C312.905,145.901,317.094,146.035,321.278,146.035z M198.84,218.46
		c-0.251,0.166-0.503,0.331-0.754,0.497c5.942,13.197,11.883,26.393,17.825,39.59c0.371-0.064,0.743-0.129,1.114-0.193
		c0.336-5.258,0.577-10.524,1.036-15.771c0.417-4.769-0.352-8.893-4.99-11.398c-0.281-0.152-0.469-0.468-0.717-0.689
		C207.851,226.483,203.345,222.472,198.84,218.46z M229.133,113.183c3,4.62,5.841,8.553,8.17,12.769
		c1.157,2.095,2.352,2.22,4.364,1.908c4.741-0.734,9.51-1.302,14.282-1.804c4.382-0.461,8.782-0.747,13.174-1.111
		C256.145,120.296,243.059,116.288,229.133,113.183z M328.171,160.294c-0.213-0.148-0.426-0.297-0.639-0.445
		c-9.23,7.531-18.461,15.061-27.691,22.592c0.731,0.591,1.068,0.646,1.382,0.583c7.45-1.497,14.901-2.993,22.339-4.548
		c0.418-0.087,0.9-0.611,1.067-1.041C326.764,171.914,327.985,166.205,328.171,160.294z M252.949,228.343
		c-7.383,3.054-14.527,5.975-21.62,9.014c-0.497,0.213-0.845,1.281-0.882,1.972c-0.212,3.897-0.228,7.805-0.471,11.7
		c-0.182,2.911-0.608,5.807-0.962,9.043C237.08,249.379,244.915,238.993,252.949,228.343z M330.111,175.186
		c9.455-5.368,19.234-10.921,29.505-16.752c-9.017-0.41-17.462-0.795-25.605-1.166C332.632,163.605,331.353,169.481,330.111,175.186
		z M175.854,102.974c-0.089,0.249-0.178,0.499-0.267,0.748c2.467,3.779,4.919,7.569,7.433,11.316
		c0.192,0.286,0.861,0.439,1.26,0.371c10.573-1.791,21.14-3.619,32.153-5.518C202.702,107.551,189.278,105.262,175.854,102.974z
		 M189.528,204.547c0.14-0.109,0.281-0.218,0.421-0.327c-4.102-12.655-8.205-25.311-12.293-37.921
		c-0.905,5.153-1.558,10.423-2.823,15.541c-0.878,3.554-1.633,6.687,2.052,9.037c0.199,0.127,0.304,0.392,0.473,0.574
		C181.413,195.818,185.47,200.183,189.528,204.547z M170.914,181.086c0.293,0.029,0.586,0.057,0.879,0.086
		c1.07-6.424,2.17-12.843,3.197-19.274c0.477-2.99,0.035-5.693-2.46-7.857c-1.099-0.953-1.786-2.367-2.739-3.505
		c-1.981-2.368-4.015-4.693-6.027-7.035c-0.237,0.106-0.474,0.212-0.711,0.317C165.673,156.24,168.294,168.663,170.914,181.086z
		 M285.962,127.088c0.02,0.19,0.041,0.379,0.061,0.569c12.483,5.179,24.966,10.357,37.449,15.536
		c-2.942-4.248-6.175-8.197-9.518-12.051c-0.803-0.926-1.919-2.106-2.979-2.202C302.649,128.19,294.302,127.675,285.962,127.088z
		 M319.417,182.449c-0.529,0-0.943-0.077-1.318,0.011c-7.063,1.665-14.131,3.31-21.162,5.101c-0.621,0.158-1.208,1.229-1.44,1.989
		c-0.772,2.522-1.273,5.128-2.071,7.641c-0.869,2.735-1.953,5.401-2.977,8.186C300.18,197.676,309.726,190.12,319.417,182.449z
		 M264.581,218.328c0.189,0.23,0.378,0.461,0.567,0.691c0.297-0.073,0.614-0.1,0.886-0.225c4.189-1.917,8.389-3.811,12.552-5.783
		c3.526-1.67,7.278-2.966,8.387-7.538c1.073-4.425,2.606-8.738,3.937-13.1c-0.322-0.172-0.645-0.343-0.967-0.515
		C281.488,200.681,273.035,209.505,264.581,218.328z M319.446,131.096c-0.054,0.201-0.108,0.402-0.163,0.603
		c3.415,4.253,6.776,8.551,10.291,12.719c0.676,0.801,1.919,1.439,2.967,1.558c6.51,0.741,13.038,1.318,19.561,1.935
		c0.893,0.085,1.793,0.095,2.69,0.139c0.043-0.23,0.087-0.459,0.13-0.689C343.098,141.94,331.272,136.518,319.446,131.096z
		 M196.413,190.959c0,6.088-0.042,12.718,0.057,19.346c0.011,0.76,0.663,1.654,1.261,2.237c3.684,3.59,7.42,7.128,11.178,10.641
		c1.399,1.308,2.905,2.502,4.812,4.132C207.673,214.611,201.9,202.485,196.413,190.959z M179.974,163.409
		c-0.235,0.163-0.47,0.326-0.705,0.489c4.366,13.352,8.731,26.703,13.097,40.055c0.411-0.072,0.821-0.145,1.232-0.217
		c-0.28-5.507-0.489-11.019-0.863-16.52c-0.31-4.551-0.997-8.913-4.268-12.614C185.374,171.101,182.785,167.157,179.974,163.409z
		 M272.042,122.688c-2.773-3.008-5.122-5.443-7.338-7.994c-1.92-2.211-3.979-3.695-7.164-3.628
		c-7.727,0.164-15.459,0.053-23.19,0.053c0.005,0.185,0.01,0.37,0.016,0.555C246.68,115.274,258.994,118.874,272.042,122.688z
		 M303.677,125.397c0.082-0.192,0.163-0.384,0.245-0.576c-11.698-4.036-23.396-8.071-35.095-12.107
		c2.975,4.038,6.089,7.65,9.271,11.201c0.387,0.432,1.135,0.739,1.728,0.76C287.776,124.95,295.726,125.166,303.677,125.397z
		 M217.917,107.923c0.114-0.189,0.228-0.378,0.343-0.567c-2.041-1.899-4.233-3.664-6.08-5.736c-1.835-2.059-3.991-2.309-6.486-2.141
		c-5.968,0.401-11.947,0.648-17.915,1.053c-2.071,0.14-4.123,0.56-6.816,0.942C193.778,103.71,205.847,105.816,217.917,107.923z
		 M254.127,241.38c8.427-8.648,16.764-17.203,25.1-25.758c-6.395,2.904-12.661,6.035-18.914,9.189
		c-0.329,0.166-0.696,0.487-0.81,0.818C257.701,230.834,255.937,236.053,254.127,241.38z M251.567,108.271
		c0.047-0.124,0.094-0.249,0.141-0.373c-11.471-2.585-22.943-5.17-34.045-7.672c2.611,2.907,5.245,5.862,7.918,8.781
		c0.241,0.263,0.734,0.441,1.099,0.424C234.977,109.064,243.272,108.664,251.567,108.271z M232.686,258.989
		c0.26,0.269,0.521,0.538,0.781,0.807c4.745-3.826,10.218-7.049,14.026-11.651c3.621-4.375,5.602-10.151,6.671-15.934
		c-0.246-0.152-0.491-0.303-0.737-0.455C246.513,240.834,239.599,249.911,232.686,258.989z M165.896,118.119
		c-0.891,5.628-1.374,10.586-2.545,15.374c-0.725,2.966,0.265,4.841,2.062,6.805c1.446,1.581,2.747,3.293,4.117,4.943
		c1.037,1.25,2.081,2.494,3.122,3.74c0.139-0.07,0.278-0.14,0.417-0.21C170.726,138.761,168.383,128.75,165.896,118.119z
		 M160.677,130.02c0.173,0.027,0.347,0.054,0.52,0.081c0.119-0.348,0.314-0.69,0.347-1.046c0.508-5.509,0.836-11.041,1.531-16.526
		c0.784-6.186-3.829-8.845-7.633-12.911C157.269,110.229,158.973,120.124,160.677,130.02z M165.249,93.109
		c-0.041,0.23-0.082,0.461-0.124,0.691c1.914,1.681,3.751,3.466,5.779,4.997c0.887,0.67,2.195,1.222,3.261,1.143
		c7.437-0.547,14.862-1.267,22.288-1.957c0.508-0.047,0.998-0.303,1.496-0.461c-0.012-0.194-0.023-0.387-0.035-0.581
		C187.026,95.664,176.138,94.386,165.249,93.109z M215.975,226.964c-1.503-14.871-8.191-27.241-18.292-37.964
		C203.781,201.654,209.878,214.309,215.975,226.964z M177.977,141.053c0,4.304-0.009,9.271,0.017,14.237
		c0.002,0.389,0.154,0.839,0.382,1.155c2.905,4.019,5.837,8.018,8.762,12.023c0.091-0.06,0.182-0.12,0.272-0.18
		C184.189,158.987,180.967,149.686,177.977,141.053z M167.999,115.025c-0.201,0.089-0.402,0.177-0.603,0.266
		c2.4,10.017,4.8,20.034,7.2,30.051c0.289-0.044,0.577-0.089,0.866-0.133c-0.621-5.799-1.466-11.585-1.795-17.4
		C173.376,122.682,170.151,119.155,167.999,115.025z M223.906,278.308c0.158,0.039,0.315,0.078,0.473,0.118
		c5.037-6.567,10.074-13.134,15.111-19.702c-2.859,1.538-5.398,3.41-7.929,5.294c-1.441,1.073-3.541,1.873-4.168,3.309
		C225.866,270.828,225.024,274.628,223.906,278.308z M181.119,141.099c-0.312,0.109-0.624,0.219-0.936,0.328
		c1.44,4.288,2.881,8.576,4.321,12.864c0.261-0.086,0.522-0.172,0.783-0.258C183.897,149.722,182.508,145.411,181.119,141.099z"/>
</g>
</svg>
