<?xml version="1.0" encoding="utf-8"?>
<!-- Generator: Adobe Illustrator 17.0.0, SVG Export Plug-In . SVG Version: 6.00 Build 0)  -->
<!DOCTYPE svg PUBLIC "-//W3C//DTD SVG 1.1//EN" "http://www.w3.org/Graphics/SVG/1.1/DTD/svg11.dtd">
<svg version="1.1" xmlns="http://www.w3.org/2000/svg" xmlns:xlink="http://www.w3.org/1999/xlink" x="0px" y="0px" width="800px"
	 height="400px" viewBox="0 0 800 400" enable-background="new 0 0 800 400" xml:space="preserve">
<g id="Calque_6">
	<path opacity="0.3" fill="#FFFFFF" d="M238,113.787c-36.833-6.88-91.833-4.787-91.833-4.787l1.667,4.833
		c0,0,41.999-4.281,83.406,3.491c-6.027,5.882-18.669,18.345-30.379,30.676c-18.36,19.333-36.693,49.5-36.693,49.5l1.833,4.667
		c0,0,15.469-1.439,48.5,2.174c21.573,2.36,36.605,4.335,44.442,5.422C237.046,238.417,208,288.595,208,288.595l2.5,5.405
		c0,0,31.833-44.5,50.333-73.667c18.5-29.167,74.167-71,74.167-71S274.833,120.667,238,113.787z M170.176,196.184
		c0,0,19.803-28.551,34.491-44.017c12.878-13.561,30.128-31.196,30.128-31.196s6.691,20.628,13.539,41.28
		C255.181,182.902,262,204.341,262,204.341s-19.009-2.903-45.434-5.793C190.141,195.657,170.176,196.184,170.176,196.184z
		 M269.5,197.167c-0.647,0.672-1.312,1.389-1.991,2.142c-2.644-7.687-7.661-22.372-13.449-39.828
		c-6.044-18.229-10.394-32.915-12.43-39.978c48.913,11.087,87.898,30.33,87.898,30.33S291.006,174.833,269.5,197.167z"/>
</g>
<g id="Calque_3">
	<path fill="#FFFFFF" d="M207.821,300.169c-29.22-63-58.44-125.999-87.675-189.031c22.103-6.224,86.834-7.284,131.907,3.971
		c34.725,8.671,80.5,27.116,87.581,35.673c-3.078,1.947-6.224,3.725-9.14,5.822c-8.113,5.836-16.348,11.536-24.12,17.803
		c-6.9,5.564-13.477,11.582-19.787,17.814c-11.9,11.753-22.659,24.421-30.576,39.344c-6.795,12.808-13.633,25.612-22.119,37.436
		c-7.406,10.318-15.008,20.471-23.861,29.621c-0.459,0.474-0.784,1.077-1.172,1.62C208.512,300.218,208.167,300.193,207.821,300.169
		z M242.619,238.914c-22.826-13.109-46.37-24.306-70.856-33.507c-0.19,0.168-0.38,0.335-0.57,0.503
		c12.83,27.425,25.66,54.851,38.555,82.417C217.707,280.402,236.181,252.598,242.619,238.914z M170.012,197.255
		c23.804,8.52,46.617,19.491,69.173,32.138c-15.642-30.121-31.005-59.705-46.129-88.828c-3.322,9.351-6.396,19.052-10.212,28.451
		C179.017,178.442,174.451,187.568,170.012,197.255z M164.688,191.333c9.566-18.484,17.037-37.194,21.993-56.892
		c0.48-1.906,0.132-2.734-1.645-3.602c-14.49-7.082-29.744-11.597-45.691-13.808c-2.891-0.401-5.827-0.473-9.102-0.724
		C141.82,141.522,153.163,166.229,164.688,191.333z M297.237,148.682c-30.201-9.766-60.701-15.096-91.474-16.7
		c9.322,7.384,18.996,14.527,28.061,22.374c9.155,7.925,17.707,16.548,26.677,25.011
		C271.026,168.612,282.576,157.202,297.237,148.682z M245.914,229.758c0.409-0.011,0.819-0.022,1.228-0.033
		c1.918-5.593,4.031-11.129,5.707-16.794c2.22-7.504,3.709-15.173,3.229-23.066c-0.069-1.139-0.556-2.479-1.307-3.313
		c-4.503-5.002-8.991-10.033-13.764-14.773c-9.316-9.251-19.256-17.802-30.002-25.371c-3.667-2.583-7.464-4.98-11.202-7.462
		c-0.229,0.191-0.458,0.381-0.688,0.572C214.715,169.597,230.314,199.677,245.914,229.758z M289.164,140.78
		c-0.381-0.689-0.423-0.882-0.542-0.963c-13.714-9.302-28.347-16.72-44.273-21.445c-2.68-0.795-5.429-1.656-8.188-1.832
		c-7.487-0.479-14.611,1.518-21.523,4.133c-3.632,1.374-7.064,3.276-10.586,4.94C232.942,127.71,261.157,132.309,289.164,140.78z
		 M218.583,113.794c-6.655-2.592-56.984-4.4-65.598-2.576c6.124,1.749,12.734,3.316,19.111,5.55
		c6.39,2.238,12.532,5.178,18.826,7.701c0.654,0.262,1.721-0.005,2.398-0.382C201.2,119.693,209.345,115.963,218.583,113.794z
		 M294.639,177.931c11.173-8.65,23.087-17.874,35.059-27.143c-3.05-1.195-6.553-1.693-10.071-1.246
		c-5.295,0.673-9.689,3.081-12.98,5.05C305.285,157.241,297.858,172.107,294.639,177.931z M263.298,207.407
		c9.902-14.931,19.967-30.107,30.268-45.64c-10.684,8.302-19.738,17.736-28.563,27.408c-0.3,0.329-0.48,0.869-0.513,1.326
		C264.061,196.278,263.67,202.056,263.298,207.407z M277.534,125.805c-0.141,0.286-0.282,0.572-0.423,0.858
		c0.064,0.148,0.085,0.36,0.198,0.434c8.816,5.843,17.632,11.686,26.481,17.479c0.463,0.303,1.243,0.362,1.808,0.235
		c4.12-0.93,8.223-1.938,12.973-3.074C304.681,136.345,291.108,131.075,277.534,125.805z"/>
</g>
<g id="Calque_1">
	<g id="text">
		<path fill="#FFFFFF" d="M488.335,248.194c-0.423-8.991-7.463-16.334-16.477-16.334s-16.759,7.146-16.772,19.394
			c-0.016,15.179,7.758,20.289,16.772,20.289c5.851,0.255,8.904-0.845,12.962-2.252c1.44-0.524,2.185-2.12,1.66-3.561
			c-0.524-1.44-2.12-2.185-3.561-1.66c-2.875,0.919-9.239,3.235-15.181,0.855c-4.974-1.992-5.347-6.962-5.72-11.932
			c7.909,0,15.819,0,23.728,0C487.264,252.988,488.54,252.553,488.335,248.194z M461.997,248.194c0-5.442,3.564-11.104,9.862-11.104
			s9.862,5.663,9.862,11.104C475.146,248.194,468.571,248.194,461.997,248.194z"/>
		<path fill="#FFFFFF" d="M529.138,248.194c-0.423-8.991-7.464-16.334-16.477-16.334s-16.759,7.146-16.772,19.394
			c-0.016,15.179,7.758,20.289,16.772,20.289c5.851,0.255,8.904-0.845,12.962-2.252c1.44-0.524,2.184-2.12,1.66-3.561
			c-0.524-1.44-2.12-2.185-3.561-1.66c-2.875,0.919-9.239,3.235-15.181,0.855c-4.974-1.992-5.347-6.962-5.72-11.932
			c7.909,0,15.819,0,23.728,0C528.067,252.988,529.343,252.553,529.138,248.194z M502.799,248.194
			c0-5.442,3.564-11.104,9.862-11.104c6.298,0,9.862,5.663,9.862,11.104C515.948,248.194,509.374,248.194,502.799,248.194z"/>
		<circle fill="#FFFFFF" cx="543.391" cy="266.488" r="5"/>
		<path fill="#FFFFFF" d="M567.259,271.296c0-16.352,0-32.705,0-36.069c0-1.839-1.494-3.334-3.334-3.334
			c-1.839,0-3.334,1.494-3.334,3.334c0,3.364,0,19.696,0,36.028c-0.073,2.79-0.145,5.579-1.333,7.101
			c-1.187,1.519-2.049,1.456-4.185,1.303c-1.44-0.524-3.036,0.22-3.561,1.66c-0.524,1.44,0.22,3.036,1.66,3.561
			c4.027,0.571,7.627,0.917,10.753-2.059C566.943,279.948,567.101,275.622,567.259,271.296z"/>
		<circle fill="#FFFFFF" cx="563.926" cy="221.615" r="3.889"/>
		<path fill="#FFFFFF" d="M588.276,271.538c6.659,0.032,13.591-3.097,13.835-11.401s-7.818-10.096-12.477-11.987
			c-4.659-1.89-6.595-4.219-5.615-7.353s3.279-3.249,5.108-3.288c4.87-0.103,6.165,0.898,7.565,1.457
			c1.44,0.524,3.036-0.22,3.561-1.66s-0.22-3.036-1.66-3.561c-1.458-0.672-2.742-1.562-7.676-1.796
			c-2.774-0.15-11.251,0.492-12.982,7.799c-1.731,7.308,2.104,10.89,8.644,13.541c3.736,1.515,9.087,2.755,9.05,7.154
			c-0.032,3.807-2.507,5.303-6.354,5.517c-5.101,0.283-7.258-1.128-9.009-1.971c-1.44-0.524-3.036,0.22-3.56,1.66
			s0.22,3.036,1.66,3.561C579.722,269.959,582.533,271.51,588.276,271.538z"/>
		<path fill="#FFFFFF" d="M445.622,238.563c1.728,0.629,3.643-0.264,4.273-1.992c0.629-1.729-0.264-3.643-1.992-4.273
			c-2.218-0.588-4.505-0.636-6.5,0.307c-2.608,1.233-4.191,3.323-5.774,5.414c0-1.073,0-2.147,0-2.782
			c0-1.839-1.494-3.334-3.334-3.334c-1.839,0-3.334,1.494-3.334,3.334c0,0.635,0.003,29.754,0.003,32.948
			c0,1.839,1.494,3.334,3.334,3.334c1.839,0,3.334-1.494,3.334-3.334c0-3.194-0.001-12.676-0.003-22.159
			c1.399-2.139,2.798-4.278,4.283-5.781C441.454,238.684,443.455,237.961,445.622,238.563z"/>
		<path fill="#FFFFFF" d="M417.072,247.758c-0.34-6.23-0.68-12.46-7.783-15.056c-7.707-2.817-12.185,1.144-16.663,5.106
			c0.001-8.963,0.003-17.926,0.003-21.148c0-1.839-1.494-3.334-3.334-3.334c-1.839,0-3.334,1.494-3.334,3.334
			c0,3.223,0,48.407,0,51.525c0,1.839,1.494,3.334,3.334,3.334c1.839,0,3.334-1.494,3.334-3.334
			c-0.001-7.891-0.002-15.783-0.003-23.674c3.822-4.205,7.643-8.41,12.704-6.539c4.651,1.719,4.863,6.168,5.075,10.617
			c-0.001,6.532-0.002,13.064-0.003,19.596c0,1.839,1.494,3.334,3.333,3.334c1.839,0,3.334-1.494,3.334-3.334
			C417.07,261.376,417.071,254.567,417.072,247.758z"/>
		<path fill="#FFFFFF" d="M375.709,270.697c1.44-0.524,2.184-2.12,1.66-3.561c-0.524-1.44-2.12-2.185-3.561-1.66
			c-3.062,0.689-3.425,0.925-5.28-0.777c-1.432-1.313-1.568-3.869-1.704-6.425c0-6.925,0-13.851,0-20.776c2.974,0,5.947,0,8.921,0
			c1.533,0,2.778-1.245,2.778-2.778s-1.245-2.778-2.778-2.778c-2.974,0-5.947,0-8.921,0c0.001-2.764,0.003-5.529,0.003-7.383
			c0-1.839-1.494-3.334-3.334-3.334c-1.839,0-3.334,1.494-3.334,3.334c0,1.854-0.001,4.619-0.003,7.383c-1.559,0-3.117,0-4.676,0
			c-1.533,0-2.778,1.245-2.778,2.778s1.245,2.778,2.778,2.778c1.559,0,3.117,0,4.676,0c0,7.237,0,14.473,0,21.71
			c0.248,3.958,0.495,7.916,3.494,10.184C366.578,271.605,370.805,272.114,375.709,270.697z"/>
	</g>
</g>
</svg>
