<?xml version="1.0" encoding="utf-8"?>
<!-- Generator: Adobe Illustrator 17.0.0, SVG Export Plug-In . SVG Version: 6.00 Build 0)  -->
<!DOCTYPE svg PUBLIC "-//W3C//DTD SVG 1.1//EN" "http://www.w3.org/Graphics/SVG/1.1/DTD/svg11.dtd">
<svg version="1.1" xmlns="http://www.w3.org/2000/svg" xmlns:xlink="http://www.w3.org/1999/xlink" x="0px" y="0px" width="800px"
	 height="400px" viewBox="0 0 800 400" enable-background="new 0 0 800 400" xml:space="preserve">
<g id="text">
	<path fill="#FFFFFF" d="M488.335,248.194c-0.423-8.991-7.463-16.334-16.477-16.334s-16.759,7.146-16.772,19.394
		c-0.016,15.179,7.758,20.289,16.772,20.289c5.851,0.255,8.904-0.845,12.962-2.252c1.44-0.524,2.185-2.12,1.66-3.561
		c-0.524-1.44-2.12-2.185-3.561-1.66c-2.875,0.919-9.239,3.235-15.181,0.855c-4.974-1.992-5.347-6.962-5.72-11.932
		c7.909,0,15.819,0,23.728,0C487.264,252.988,488.54,252.553,488.335,248.194z M461.997,248.194c0-5.442,3.564-11.104,9.862-11.104
		s9.862,5.663,9.862,11.104C475.146,248.194,468.571,248.194,461.997,248.194z"/>
	<path fill="#FFFFFF" d="M529.138,248.194c-0.423-8.991-7.464-16.334-16.477-16.334s-16.759,7.146-16.772,19.394
		c-0.016,15.179,7.758,20.289,16.772,20.289c5.851,0.255,8.904-0.845,12.962-2.252c1.44-0.524,2.184-2.12,1.66-3.561
		c-0.524-1.44-2.12-2.185-3.561-1.66c-2.875,0.919-9.239,3.235-15.181,0.855c-4.974-1.992-5.347-6.962-5.72-11.932
		c7.909,0,15.819,0,23.728,0C528.067,252.988,529.343,252.553,529.138,248.194z M502.799,248.194c0-5.442,3.564-11.104,9.862-11.104
		c6.298,0,9.862,5.663,9.862,11.104C515.948,248.194,509.374,248.194,502.799,248.194z"/>
	<circle fill="#FFFFFF" cx="543.391" cy="266.488" r="5"/>
	<path fill="#FFFFFF" d="M567.259,271.296c0-16.352,0-32.705,0-36.069c0-1.839-1.494-3.334-3.334-3.334
		c-1.839,0-3.334,1.494-3.334,3.334c0,3.364,0,19.696,0,36.028c-0.073,2.79-0.145,5.579-1.333,7.101
		c-1.187,1.519-2.049,1.456-4.185,1.303c-1.44-0.524-3.036,0.22-3.561,1.66c-0.524,1.44,0.22,3.036,1.66,3.561
		c4.027,0.571,7.627,0.917,10.753-2.059C566.943,279.948,567.101,275.622,567.259,271.296z"/>
	<circle fill="#FFFFFF" cx="563.926" cy="221.615" r="3.889"/>
	<path fill="#FFFFFF" d="M588.276,271.538c6.659,0.032,13.591-3.097,13.835-11.401s-7.818-10.096-12.477-11.987
		c-4.659-1.89-6.595-4.219-5.615-7.353s3.279-3.249,5.108-3.288c4.87-0.103,6.165,0.898,7.565,1.457
		c1.44,0.524,3.036-0.22,3.561-1.66s-0.22-3.036-1.66-3.561c-1.458-0.672-2.742-1.562-7.676-1.796
		c-2.774-0.15-11.251,0.492-12.982,7.799c-1.731,7.308,2.104,10.89,8.644,13.541c3.736,1.515,9.087,2.755,9.05,7.154
		c-0.032,3.807-2.507,5.303-6.354,5.517c-5.101,0.283-7.258-1.128-9.009-1.971c-1.44-0.524-3.036,0.22-3.56,1.66
		s0.22,3.036,1.66,3.561C579.722,269.959,582.533,271.51,588.276,271.538z"/>
	<path fill="#FFFFFF" d="M445.622,238.563c1.728,0.629,3.643-0.264,4.273-1.992c0.629-1.729-0.264-3.643-1.992-4.273
		c-2.218-0.588-4.505-0.636-6.5,0.307c-2.608,1.233-4.191,3.323-5.774,5.414c0-1.073,0-2.147,0-2.782
		c0-1.839-1.494-3.334-3.334-3.334c-1.839,0-3.334,1.494-3.334,3.334c0,0.635,0.003,29.754,0.003,32.948
		c0,1.839,1.494,3.334,3.334,3.334c1.839,0,3.334-1.494,3.334-3.334c0-3.194-0.001-12.676-0.003-22.159
		c1.399-2.139,2.798-4.278,4.283-5.781C441.454,238.684,443.455,237.961,445.622,238.563z"/>
	<path fill="#FFFFFF" d="M417.072,247.758c-0.34-6.23-0.68-12.46-7.783-15.056c-7.707-2.817-12.185,1.144-16.663,5.106
		c0.001-8.963,0.003-17.926,0.003-21.148c0-1.839-1.494-3.334-3.334-3.334c-1.839,0-3.334,1.494-3.334,3.334
		c0,3.223,0,48.407,0,51.525c0,1.839,1.494,3.334,3.334,3.334c1.839,0,3.334-1.494,3.334-3.334
		c-0.001-7.891-0.002-15.783-0.003-23.674c3.822-4.205,7.643-8.41,12.704-6.539c4.651,1.719,4.863,6.168,5.075,10.617
		c-0.001,6.532-0.002,13.064-0.003,19.596c0,1.839,1.494,3.334,3.333,3.334c1.839,0,3.334-1.494,3.334-3.334
		C417.07,261.376,417.071,254.567,417.072,247.758z"/>
	<path fill="#FFFFFF" d="M375.709,270.697c1.44-0.524,2.184-2.12,1.66-3.561c-0.524-1.44-2.12-2.185-3.561-1.66
		c-3.062,0.689-3.425,0.925-5.28-0.777c-1.432-1.313-1.568-3.869-1.704-6.425c0-6.925,0-13.851,0-20.776c2.974,0,5.947,0,8.921,0
		c1.533,0,2.778-1.245,2.778-2.778s-1.245-2.778-2.778-2.778c-2.974,0-5.947,0-8.921,0c0.001-2.764,0.003-5.529,0.003-7.383
		c0-1.839-1.494-3.334-3.334-3.334c-1.839,0-3.334,1.494-3.334,3.334c0,1.854-0.001,4.619-0.003,7.383c-1.559,0-3.117,0-4.676,0
		c-1.533,0-2.778,1.245-2.778,2.778s1.245,2.778,2.778,2.778c1.559,0,3.117,0,4.676,0c0,7.237,0,14.473,0,21.71
		c0.248,3.958,0.495,7.916,3.494,10.184C366.578,271.605,370.805,272.114,375.709,270.697z"/>
</g>
<g id="logo">
	<path fill="#FFFFFF" d="M375.9,165.672c-9.129,4.249-17.797,7.916-26.122,12.242c-12.887,6.697-25.347,14.183-36.938,22.966
		c-9.752,7.39-19.315,15.037-28.803,22.764c-13.051,10.629-25.074,22.4-36.525,34.694c-10.118,10.863-19.587,22.33-29.378,33.499
		c-1.644,1.876-3.41,3.656-5.226,5.366c-1.525,1.436-5.064,0.392-5.855-1.624c-8.651-22.02-15.95-44.477-20.932-67.615
		c-2.993-13.904-5.853-27.876-7.772-41.954c-0.774-5.675-3.688-9.129-7.207-12.664c-1.7-1.708-2.449-3.303-2.214-5.885
		c1.337-14.727,2.648-29.465,3.468-44.227c0.456-8.204,0.008-16.463-0.162-24.695c-0.111-5.37,2.359-7.782,7.613-7.134
		c36.088,4.455,71.269,12.669,105.273,25.735c18.222,7.002,35.949,15.089,53.169,24.23c12.002,6.371,23.686,13.347,35.403,20.239
		C374.817,162.271,375.166,164.254,375.9,165.672z M225.314,166.596c-13.594,2.011-27.521,4.178-41.188,7.388
		c5.907,7.641,11.584,14.986,17.079,22.096C209.219,186.28,217.324,176.367,225.314,166.596z M243.605,192.994
		c-4.341-8.661-8.426-16.814-12.848-25.637c-8.411,10.314-16.478,20.205-24.544,30.096c0.169,0.213,0.337,0.427,0.506,0.64
		C218.775,196.427,230.83,194.761,243.605,192.994z M180.999,161.821c14.397-2.751,28.536-5.453,42.674-8.154
		c0.064-0.148,0.127-0.295,0.191-0.443c-13.613-4.969-27.227-9.938-41.113-15.006C182.131,146.567,181.568,154.15,180.999,161.821z
		 M237.067,164.803c4.047,8.685,7.857,16.862,11.584,24.859c9.101-9.271,18.215-18.554,27.557-28.07
		C263.348,162.647,250.537,163.698,237.067,164.803z M216.831,228.489c8.079-9.869,16.203-19.791,24.326-29.714
		c-0.12-0.208-0.24-0.417-0.361-0.625c-11.765,1.645-23.531,3.291-35.337,4.942C209.292,211.65,213.043,220.026,216.831,228.489z
		 M280.734,163.309c-9.577,9.674-18.71,18.9-27.843,28.126c0.165,0.155,0.33,0.309,0.494,0.464
		c11.354-1.156,22.709-2.313,34.55-3.519C285.579,180.178,283.289,172.205,280.734,163.309z M322.34,162.759
		c-0.019-0.194-0.037-0.388-0.056-0.582c-11.664-0.31-23.328-0.62-35.507-0.944c2.242,8.441,4.357,16.403,6.485,24.416
		C303.098,177.905,312.719,170.332,322.34,162.759z M220.705,229.971c0.119,0.174,0.238,0.349,0.357,0.523
		c1.09-0.155,2.19-0.261,3.269-0.471c8.596-1.675,17.193-3.345,25.77-5.116c0.544-0.112,1.353-1.108,1.295-1.607
		c-0.33-2.863-0.734-5.736-1.398-8.539c-1.165-4.917-2.536-9.785-3.969-15.241C237.282,210.038,228.993,220.005,220.705,229.971z
		 M187.993,135.562c0.037,0.196,0.073,0.392,0.11,0.588c13.293,4.884,26.587,9.768,39.874,14.649c0-6.604,0-13.137,0-20.304
		C214.44,132.211,201.216,133.886,187.993,135.562z M251.703,196.769c1.847,8.327,3.583,16.156,5.452,24.584
		c9.113-9.687,18.078-19.216,26.64-28.318C273.692,194.211,262.647,195.496,251.703,196.769z M274.072,148.77
		c0.061-0.164,0.123-0.327,0.184-0.491c-12.977-5.521-25.954-11.041-38.856-16.53c0,7.076,0,13.664,0,20.237
		C248.609,150.888,261.34,149.829,274.072,148.77z M222.425,260.35c8.927-10.428,17.526-20.473,26.306-30.729
		c-9.366,1.959-18.372,3.968-27.439,5.654c-2.343,0.436-2.603,1.206-2.156,3.256c0.912,4.183,1.671,8.405,2.329,12.637
		C221.914,254.059,222.085,256.994,222.425,260.35z M326.903,165.136c-0.282-0.084-0.565-0.168-0.847-0.252
		c-9.567,7.32-19.133,14.641-28.7,21.961c0.139,0.258,0.278,0.515,0.417,0.773c10.205-0.721,20.41-1.441,31.247-2.206
		C328.298,178.491,327.601,171.813,326.903,165.136z M223.264,127.708c-13.207-4.447-26.029-8.459-39.434-11.509
		c-0.271,5.879-0.521,11.301-0.766,16.639C196.4,131.136,209.515,129.462,223.264,127.708z M239.519,129.776
		c-0.014,0.135-0.029,0.269-0.043,0.404c12.797,5.462,25.595,10.924,38.953,16.626c-0.858-5.896-1.65-11.332-2.479-17.03
		C263.609,129.776,251.564,129.776,239.519,129.776z M259.919,221.963c0.147,0.218,0.294,0.435,0.441,0.653
		c8.916-2.354,17.84-4.676,26.73-7.125c0.718-0.198,1.69-1.266,1.705-1.948c0.133-6.151,0.077-12.307,0.077-18.461
		c-0.193-0.135-0.386-0.27-0.579-0.406C278.835,203.772,269.377,212.868,259.919,221.963z M332.537,163.068
		c0.653,7.125,1.247,13.609,1.839,20.063c9.805-5.153,19.81-10.411,30.202-15.872C353.834,165.854,343.308,164.477,332.537,163.068z
		 M285.265,148.617c11.378,0.461,22.697,0.921,34.016,1.38c0.064-0.232,0.127-0.465,0.191-0.697
		c-12.183-5.919-24.367-11.838-36.997-17.973C283.483,137.574,284.349,142.938,285.265,148.617z M294.449,211.438
		c9.892-7.24,20.137-14.739,30.7-22.471c-10.464,1.023-20.553,2.009-30.7,3C294.449,198.782,294.449,205.276,294.449,211.438z
		 M252.602,231.479c-0.405-0.137-0.809-0.274-1.214-0.412c-8.659,10.011-17.317,20.022-26.191,30.281
		c0.783,0.136,0.972,0.234,1.099,0.181c7.377-3.046,14.76-6.079,22.102-9.206c0.63-0.268,1.324-1.113,1.429-1.778
		C250.821,244.201,251.694,237.837,252.602,231.479z M189.559,113.937c0.032,0.189,0.064,0.378,0.096,0.567
		c12.577,3.776,25.155,7.552,38.071,11.43c-0.447-4.632-0.873-9.045-1.34-13.89C213.953,112.683,201.756,113.31,189.559,113.937z
		 M284.221,219.967c-0.703,0-0.958-0.055-1.18,0.008c-8.25,2.331-16.506,4.642-24.726,7.075c-0.584,0.173-1.212,1.205-1.292,1.898
		c-0.292,2.546-0.252,5.129-0.542,7.675c-0.389,3.408-0.969,6.795-1.494,10.371C264.725,237.991,274.304,229.135,284.221,219.967z
		 M233.061,113c0.575,5.156,1.059,9.497,1.544,13.84c11.931,0,23.755,0,35.579,0c0.067-0.201,0.134-0.402,0.201-0.604
		C258.064,121.867,245.743,117.498,233.061,113z M205.822,286.103c0.48-0.062,0.96-0.124,1.44-0.186
		c0.924-6.348,1.942-12.686,2.686-19.055c0.136-1.167-0.588-2.665-1.365-3.659c-1.577-2.019-3.489-3.772-5.214-5.68
		c-3.405-3.765-6.776-7.56-10.161-11.343c-0.161,0.065-0.321,0.13-0.482,0.195C197.091,259.617,201.457,272.86,205.822,286.103z
		 M323.975,148.918c-1.418-4.4-2.733-8.18-3.83-12.022c-0.47-1.644-1.415-2.218-2.963-2.439c-5.337-0.763-10.651-1.693-15.996-2.386
		c-4.288-0.556-8.609-0.862-12.915-1.278c0,0.117-0.001,0.234-0.001,0.351C299.94,136.954,311.612,142.764,323.975,148.918z
		 M360.726,156.665c0.071-0.242,0.142-0.484,0.213-0.726c-11.531-6.223-23.063-12.445-34.594-18.668
		c0.894,4.513,2.097,8.517,3.504,12.449c0.279,0.78,1.263,1.696,2.052,1.841c5.135,0.942,10.317,1.625,15.462,2.518
		C351.832,154.855,356.273,155.797,360.726,156.665z M245.275,257.121c-0.176-0.026-0.361-0.117-0.484-0.063
		c-7.162,3.147-14.338,6.266-21.446,9.531c-0.67,0.308-1.165,1.499-1.311,2.354c-0.458,2.69-0.577,5.439-1.075,8.119
		c-0.642,3.458-1.523,6.871-2.33,10.434C227.545,277.332,236.374,267.267,245.275,257.121z M184.011,101.229
		c0,3.937,0,7.302,0,10.735c11.996-0.77,23.77-1.525,35.544-2.281c0.043-0.142,0.085-0.283,0.128-0.425
		C207.868,106.599,196.055,103.94,184.011,101.229z M240.03,112.231c-0.048,0.153-0.096,0.306-0.144,0.46
		c11.515,4.18,23.03,8.36,35.104,12.743c-1.128-3.484-1.739-6.996-3.448-9.85c-0.693-1.158-3.778-0.886-5.776-1.259
		c-0.325-0.061-0.655-0.105-0.985-0.131C256.531,113.537,248.28,112.884,240.03,112.231z M311.71,131.079
		c0.087-0.241,0.174-0.482,0.261-0.722c-11.188-4.613-22.377-9.225-33.969-14.004c1.136,3.612,2.116,6.414,2.873,9.276
		c0.348,1.315,0.858,1.957,2.274,2.073c3.959,0.324,7.913,0.722,11.857,1.2C300.58,129.576,306.142,130.349,311.71,131.079z
		 M206.444,256.59c0.16-0.115,0.319-0.229,0.479-0.344c-4.299-11.988-8.599-23.975-12.888-35.932
		c-0.401,4.755-0.598,9.563-1.282,14.301c-0.439,3.041-0.661,5.606,1.71,8.137C198.632,247.2,202.469,251.96,206.444,256.59z
		 M189.137,232.374c0.445-0.039,0.891-0.077,1.336-0.116c0.204-6.75,0.484-13.499,0.551-20.25c0.015-1.464-0.49-3.062-1.174-4.381
		c-1.855-3.574-3.94-7.028-5.923-10.536c-0.714-1.263-1.398-2.543-2.096-3.816c-0.198,0.075-0.395,0.15-0.593,0.224
		C183.872,206.458,186.504,219.416,189.137,232.374z M192.701,100.762c10.662,2.508,21.639,5.091,33.084,7.784
		c-0.669-2.675-1.271-5.084-1.946-7.784C213.235,100.762,202.814,100.762,192.701,100.762z M261.743,111.539
		c0.05-0.236,0.1-0.473,0.15-0.709c-10.388-2.923-20.776-5.845-31.609-8.893c0.691,2.518,1.343,4.236,1.598,6.012
		c0.247,1.718,1.082,2.058,2.645,2.118c6.133,0.234,12.262,0.602,18.391,0.936C255.86,111.162,258.801,111.359,261.743,111.539z
		 M195.55,218.403c4.572,12.644,9.144,25.287,13.715,37.931c0.242-0.087,0.483-0.174,0.725-0.261
		C209.112,242.176,205.907,229.108,195.55,218.403z M211.578,98.438c0.023-0.175,0.045-0.35,0.068-0.525
		c-9.524-1.576-19.047-3.151-28.989-4.796c0.384,2.245,0.654,3.822,0.91,5.321C193.095,98.438,202.337,98.438,211.578,98.438z
		 M198.592,217.369c0.221-0.109,0.443-0.218,0.664-0.327c-1.911-4.482-3.822-8.965-5.733-13.447
		C192.303,209.438,196.471,212.963,198.592,217.369z M187.456,198.394c0.117-5.06-2.401-8.835-6.126-11.975
		C183.372,190.41,185.414,194.402,187.456,198.394z"/>
</g>
</svg>
